solid OpenSCAD_Model
  facet normal -0.951057 0.307323 -0.0323068
    outer loop
      vertex -48.343 60.0823 -62.7056
      vertex -49.4316 56.723 -62.6149
      vertex -48.343 60.1377 -62.1786
    endloop
  endfacet
  facet normal -0.951054 0.307319 -0.0324131
    outer loop
      vertex -49.4316 56.723 -62.6149
      vertex -48.343 60.0823 -62.7056
      vertex -49.4647 56.611 -62.7056
    endloop
  endfacet
  facet normal 0 -0.994522 0.104532
    outer loop
      vertex -43.743 3.81666 -62.7056
      vertex 43.743 4.33398 -57.7838
      vertex -43.743 4.33398 -57.7838
    endloop
  endfacet
  facet normal 0 -0.994522 0.104532
    outer loop
      vertex 43.743 4.33398 -57.7838
      vertex -43.743 3.81666 -62.7056
      vertex 43.743 3.81666 -62.7056
    endloop
  endfacet
  facet normal -0.587771 -0.804599 0.0845296
    outer loop
      vertex -48.343 7.81061 -56.6788
      vertex -46.4519 6.49444 -56.0572
      vertex -47.6816 7.38294 -56.1506
    endloop
  endfacet
  facet normal -0.58778 -0.804587 0.0845833
    outer loop
      vertex -43.743 4.33398 -57.7838
      vertex -46.4519 6.49444 -56.0572
      vertex -48.343 7.81061 -56.6788
    endloop
  endfacet
  facet normal -0.587758 -0.804598 0.0846317
    outer loop
      vertex -46.4519 6.49444 -56.0572
      vertex -43.743 4.33398 -57.7838
      vertex -44.0432 4.62112 -57.1388
    endloop
  endfacet
  facet normal -0.587783 -0.804586 0.0845665
    outer loop
      vertex -48.343 7.17716 -62.7056
      vertex -43.743 4.33398 -57.7838
      vertex -48.343 7.81061 -56.6788
    endloop
  endfacet
  facet normal -0.587785 -0.804585 0.0845683
    outer loop
      vertex -43.743 4.33398 -57.7838
      vertex -48.343 7.17716 -62.7056
      vertex -43.743 3.81666 -62.7056
    endloop
  endfacet
  facet normal -0.951059 -0.307317 0.0323028
    outer loop
      vertex -48.343 7.17716 -62.7056
      vertex -50 12.617 -59.7383
      vertex -50 12.3051 -62.7056
    endloop
  endfacet
  facet normal -0.95106 -0.307314 0.0322957
    outer loop
      vertex -50 12.617 -59.7383
      vertex -48.343 7.17716 -62.7056
      vertex -49.4316 11.06 -57.8156
    endloop
  endfacet
  facet normal -0.951058 -0.30732 0.032301
    outer loop
      vertex -49.4316 11.06 -57.8156
      vertex -48.343 7.17716 -62.7056
      vertex -48.343 7.81061 -56.6788
    endloop
  endfacet
  facet normal 0.951057 0.307323 -0.0323068
    outer loop
      vertex 49.4316 56.723 -62.6149
      vertex 48.343 60.0823 -62.7056
      vertex 48.343 60.1377 -62.1786
    endloop
  endfacet
  facet normal 0.951054 0.307319 -0.0324131
    outer loop
      vertex 48.343 60.0823 -62.7056
      vertex 49.4316 56.723 -62.6149
      vertex 49.4647 56.611 -62.7056
    endloop
  endfacet
  facet normal 0.58775 0.804609 -0.0845832
    outer loop
      vertex 48.343 60.0823 -62.7056
      vertex 47.6816 60.6658 -61.7509
      vertex 48.343 60.1377 -62.1786
    endloop
  endfacet
  facet normal 0.587771 0.804596 -0.0845609
    outer loop
      vertex 47.6816 60.6658 -61.7509
      vertex 48.343 60.0823 -62.7056
      vertex 46.4519 61.5543 -61.8443
    endloop
  endfacet
  facet normal 0.587789 0.804588 -0.084508
    outer loop
      vertex 46.4519 61.5543 -61.8443
      vertex 48.343 60.0823 -62.7056
      vertex 45.0185 62.511 -62.7056
    endloop
  endfacet
  facet normal 0.587771 -0.804599 0.0845296
    outer loop
      vertex 46.4519 6.49444 -56.0572
      vertex 48.343 7.81061 -56.6788
      vertex 47.6816 7.38294 -56.1506
    endloop
  endfacet
  facet normal 0.587758 -0.804598 0.0846317
    outer loop
      vertex 43.743 4.33398 -57.7838
      vertex 46.4519 6.49444 -56.0572
      vertex 44.0432 4.62112 -57.1388
    endloop
  endfacet
  facet normal 0.58778 -0.804587 0.0845833
    outer loop
      vertex 46.4519 6.49444 -56.0572
      vertex 43.743 4.33398 -57.7838
      vertex 48.343 7.81061 -56.6788
    endloop
  endfacet
  facet normal 0.587785 -0.804585 0.0845683
    outer loop
      vertex 48.343 7.17716 -62.7056
      vertex 43.743 4.33398 -57.7838
      vertex 43.743 3.81666 -62.7056
    endloop
  endfacet
  facet normal 0.587783 -0.804586 0.0845665
    outer loop
      vertex 43.743 4.33398 -57.7838
      vertex 48.343 7.17716 -62.7056
      vertex 48.343 7.81061 -56.6788
    endloop
  endfacet
  facet normal -0.587797 0.80458 -0.0845333
    outer loop
      vertex -48.343 60.0823 -62.7056
      vertex -47.6816 60.6658 -61.7509
      vertex -47.222 60.9979 -61.7858
    endloop
  endfacet
  facet normal -0.587755 0.804603 -0.0846059
    outer loop
      vertex -48.343 60.0823 -62.7056
      vertex -47.222 60.9979 -61.7858
      vertex -46.4519 61.5543 -61.8443
    endloop
  endfacet
  facet normal -0.58775 0.804609 -0.0845832
    outer loop
      vertex -47.6816 60.6658 -61.7509
      vertex -48.343 60.0823 -62.7056
      vertex -48.343 60.1377 -62.1786
    endloop
  endfacet
  facet normal -0.587789 0.804588 -0.084508
    outer loop
      vertex -48.343 60.0823 -62.7056
      vertex -46.4519 61.5543 -61.8443
      vertex -45.0185 62.511 -62.7056
    endloop
  endfacet
  facet normal 0.95106 -0.307314 0.0322957
    outer loop
      vertex 48.343 7.17716 -62.7056
      vertex 50 12.617 -59.7383
      vertex 49.4316 11.06 -57.8156
    endloop
  endfacet
  facet normal 0.951058 -0.30732 0.032301
    outer loop
      vertex 48.343 7.17716 -62.7056
      vertex 49.4316 11.06 -57.8156
      vertex 48.343 7.81061 -56.6788
    endloop
  endfacet
  facet normal 0.951059 -0.307317 0.0323028
    outer loop
      vertex 50 12.617 -59.7383
      vertex 48.343 7.17716 -62.7056
      vertex 50 12.3051 -62.7056
    endloop
  endfacet
  facet normal 0 -0.500013 0.866018
    outer loop
      vertex 7.5816 6.49444 -56.0572
      vertex 44.0432 4.62112 -57.1388
      vertex 46.4519 6.49444 -56.0572
    endloop
  endfacet
  facet normal 0 -0.500013 0.866018
    outer loop
      vertex 7.5816 6.49444 -56.0572
      vertex -44.0432 4.62112 -57.1388
      vertex 44.0432 4.62112 -57.1388
    endloop
  endfacet
  facet normal 0 -0.500013 0.866018
    outer loop
      vertex -44.0432 4.62112 -57.1388
      vertex 7.5816 6.49444 -56.0572
      vertex -46.4519 6.49444 -56.0572
    endloop
  endfacet
  facet normal -0 0.669081 0.74319
    outer loop
      vertex -45.0185 62.511 -62.7056
      vertex 46.4519 61.5543 -61.8443
      vertex 45.0185 62.511 -62.7056
    endloop
  endfacet
  facet normal 0 0.669081 0.74319
    outer loop
      vertex 46.4519 61.5543 -61.8443
      vertex -45.0185 62.511 -62.7056
      vertex -46.4519 61.5543 -61.8443
    endloop
  endfacet
  facet normal -0.000124373 0.104602 0.994514
    outer loop
      vertex -47.6816 7.38294 -56.1506
      vertex -32.7 32.4752 -58.7879
      vertex -32.7 33.2862 -58.8732
    endloop
  endfacet
  facet normal 3.41532e-005 0.104547 0.99452
    outer loop
      vertex -47.6816 60.6658 -61.7509
      vertex -32.7 33.2862 -58.8732
      vertex -32.5804 33.6524 -58.9117
    endloop
  endfacet
  facet normal 0 0.104527 0.994522
    outer loop
      vertex -47.222 60.9979 -61.7858
      vertex -32.0655 34.0244 -58.9508
      vertex -20.1 34.0244 -58.9508
    endloop
  endfacet
  facet normal -7.3232e-006 0.104523 0.994522
    outer loop
      vertex -47.6816 60.6658 -61.7509
      vertex -32.0655 34.0244 -58.9508
      vertex -47.222 60.9979 -61.7858
    endloop
  endfacet
  facet normal 2.11567e-006 0.104529 0.994522
    outer loop
      vertex -32.0655 34.0244 -58.9508
      vertex -47.6816 60.6658 -61.7509
      vertex -32.5804 33.6524 -58.9117
    endloop
  endfacet
  facet normal 2.35175e-006 0.104529 0.994522
    outer loop
      vertex -32.7 33.2862 -58.8732
      vertex -47.6816 60.6658 -61.7509
      vertex -47.6816 7.38294 -56.1506
    endloop
  endfacet
  facet normal -8.46725e-006 0.104533 0.994521
    outer loop
      vertex -32.7 32.4752 -58.7879
      vertex -47.6816 7.38294 -56.1506
      vertex -46.4519 6.49444 -56.0572
    endloop
  endfacet
  facet normal 0 0.104528 0.994522
    outer loop
      vertex -46.4519 6.49444 -56.0572
      vertex -17.8 31.737 -58.7103
      vertex -32.0655 31.737 -58.7103
    endloop
  endfacet
  facet normal 0 0.104528 0.994522
    outer loop
      vertex -17.8 31.737 -58.7103
      vertex -46.4519 6.49444 -56.0572
      vertex 7.5816 6.49444 -56.0572
    endloop
  endfacet
  facet normal -1.67456e-006 0.104529 0.994522
    outer loop
      vertex -32.5804 32.109 -58.7494
      vertex -46.4519 6.49444 -56.0572
      vertex -32.0655 31.737 -58.7103
    endloop
  endfacet
  facet normal -3.38197e-005 0.104547 0.99452
    outer loop
      vertex -46.4519 6.49444 -56.0572
      vertex -32.5804 32.109 -58.7494
      vertex -32.7 32.4752 -58.7879
    endloop
  endfacet
  facet normal 0 -0.913563 0.406698
    outer loop
      vertex -43.743 4.33398 -57.7838
      vertex 44.0432 4.62112 -57.1388
      vertex -44.0432 4.62112 -57.1388
    endloop
  endfacet
  facet normal 0 -0.913563 0.406698
    outer loop
      vertex 44.0432 4.62112 -57.1388
      vertex -43.743 4.33398 -57.7838
      vertex 43.743 4.33398 -57.7838
    endloop
  endfacet
  facet normal 0.58782 0.084597 0.804556
    outer loop
      vertex 47.6816 60.6658 -61.7509
      vertex 49.4316 56.723 -62.6149
      vertex 48.343 60.1377 -62.1786
    endloop
  endfacet
  facet normal 0.587772 0.084567 0.804595
    outer loop
      vertex 47.6816 7.38294 -56.1506
      vertex 49.4316 56.723 -62.6149
      vertex 47.6816 60.6658 -61.7509
    endloop
  endfacet
  facet normal 0.587809 0.0845622 0.804568
    outer loop
      vertex 49.4316 56.723 -62.6149
      vertex 47.6816 7.38294 -56.1506
      vertex 49.4316 11.06 -57.8156
    endloop
  endfacet
  facet normal 0.587855 0.0845265 0.804538
    outer loop
      vertex 49.4316 11.06 -57.8156
      vertex 47.6816 7.38294 -56.1506
      vertex 48.343 7.81061 -56.6788
    endloop
  endfacet
  facet normal -0.58782 0.084597 0.804556
    outer loop
      vertex -49.4316 56.723 -62.6149
      vertex -47.6816 60.6658 -61.7509
      vertex -48.343 60.1377 -62.1786
    endloop
  endfacet
  facet normal -0.587772 0.084567 0.804595
    outer loop
      vertex -47.6816 60.6658 -61.7509
      vertex -49.4316 56.723 -62.6149
      vertex -47.6816 7.38294 -56.1506
    endloop
  endfacet
  facet normal -0.587809 0.0845622 0.804568
    outer loop
      vertex -49.4316 11.06 -57.8156
      vertex -47.6816 7.38294 -56.1506
      vertex -49.4316 56.723 -62.6149
    endloop
  endfacet
  facet normal -0.587855 0.0845265 0.804538
    outer loop
      vertex -47.6816 7.38294 -56.1506
      vertex -49.4316 11.06 -57.8156
      vertex -48.343 7.81061 -56.6788
    endloop
  endfacet
  facet normal -8.91204e-006 0.104533 0.994521
    outer loop
      vertex 32.0655 34.0244 -58.9508
      vertex 47.6816 60.6658 -61.7509
      vertex 46.4519 61.5543 -61.8443
    endloop
  endfacet
  facet normal -2.35175e-006 0.104529 0.994522
    outer loop
      vertex 47.6816 60.6658 -61.7509
      vertex 32.7 33.2862 -58.8732
      vertex 47.6816 7.38294 -56.1506
    endloop
  endfacet
  facet normal 0.000124373 0.104602 0.994514
    outer loop
      vertex 32.7 32.4752 -58.7879
      vertex 47.6816 7.38294 -56.1506
      vertex 32.7 33.2862 -58.8732
    endloop
  endfacet
  facet normal -3.41532e-005 0.104547 0.99452
    outer loop
      vertex 47.6816 60.6658 -61.7509
      vertex 32.5804 33.6524 -58.9117
      vertex 32.7 33.2862 -58.8732
    endloop
  endfacet
  facet normal -2.11567e-006 0.104529 0.994522
    outer loop
      vertex 47.6816 60.6658 -61.7509
      vertex 32.0655 34.0244 -58.9508
      vertex 32.5804 33.6524 -58.9117
    endloop
  endfacet
  facet normal 0 0.104528 0.994522
    outer loop
      vertex 46.4519 61.5543 -61.8443
      vertex -20.1 34.0244 -58.9508
      vertex 32.0655 34.0244 -58.9508
    endloop
  endfacet
  facet normal -0 0.104528 0.994522
    outer loop
      vertex -46.4519 61.5543 -61.8443
      vertex -20.1 34.0244 -58.9508
      vertex 46.4519 61.5543 -61.8443
    endloop
  endfacet
  facet normal 1.54116e-005 0.104543 0.99452
    outer loop
      vertex -20.1 34.0244 -58.9508
      vertex -46.4519 61.5543 -61.8443
      vertex -47.222 60.9979 -61.7858
    endloop
  endfacet
  facet normal 3.19602e-005 0.104547 0.99452
    outer loop
      vertex 32.5804 32.109 -58.7494
      vertex 47.6816 7.38294 -56.1506
      vertex 32.7 32.4752 -58.7879
    endloop
  endfacet
  facet normal 1.91575e-006 0.104529 0.994522
    outer loop
      vertex 32.0655 31.737 -58.7103
      vertex 47.6816 7.38294 -56.1506
      vertex 32.5804 32.109 -58.7494
    endloop
  endfacet
  facet normal 8.52736e-006 0.104533 0.994521
    outer loop
      vertex 47.6816 7.38294 -56.1506
      vertex 32.0655 31.737 -58.7103
      vertex 46.4519 6.49444 -56.0572
    endloop
  endfacet
  facet normal 0 0.104528 0.994522
    outer loop
      vertex 32.0655 31.737 -58.7103
      vertex 7.5816 6.49444 -56.0572
      vertex 46.4519 6.49444 -56.0572
    endloop
  endfacet
  facet normal 0 0.104528 0.994522
    outer loop
      vertex 7.5816 6.49444 -56.0572
      vertex 32.0655 31.737 -58.7103
      vertex -17.8 31.737 -58.7103
    endloop
  endfacet
  facet normal 0.951095 0.0323009 0.307205
    outer loop
      vertex 49.4316 56.723 -62.6149
      vertex 50 40.8492 -62.7056
      vertex 49.4647 56.611 -62.7056
    endloop
  endfacet
  facet normal 0.951061 0.0322991 0.307311
    outer loop
      vertex 49.4316 11.06 -57.8156
      vertex 50 40.8492 -62.7056
      vertex 49.4316 56.723 -62.6149
    endloop
  endfacet
  facet normal 0.95106 0.0322998 0.307314
    outer loop
      vertex 50 40.8492 -62.7056
      vertex 49.4316 11.06 -57.8156
      vertex 50 12.617 -59.7383
    endloop
  endfacet
  facet normal -0.951095 0.0323009 0.307205
    outer loop
      vertex -50 40.8492 -62.7056
      vertex -49.4316 56.723 -62.6149
      vertex -49.4647 56.611 -62.7056
    endloop
  endfacet
  facet normal -0.95106 0.0322998 0.307314
    outer loop
      vertex -49.4316 11.06 -57.8156
      vertex -50 40.8492 -62.7056
      vertex -50 12.617 -59.7383
    endloop
  endfacet
  facet normal -0.951061 0.0322991 0.307311
    outer loop
      vertex -50 40.8492 -62.7056
      vertex -49.4316 11.06 -57.8156
      vertex -49.4316 56.723 -62.6149
    endloop
  endfacet
  facet normal -1 0 0
    outer loop
      vertex -50 40.8492 -62.7056
      vertex -50 12.3051 -62.7056
      vertex -50 12.617 -59.7383
    endloop
  endfacet
  facet normal 1 0 0
    outer loop
      vertex 50 12.617 -59.7383
      vertex 50 12.3051 -62.7056
      vertex 50 40.8492 -62.7056
    endloop
  endfacet
  facet normal 0 0 -1
    outer loop
      vertex 43.743 3.81666 -62.7056
      vertex 50 40.8492 -62.7056
      vertex 50 12.3051 -62.7056
    endloop
  endfacet
  facet normal 0 0 -1
    outer loop
      vertex 43.743 3.81666 -62.7056
      vertex 50 12.3051 -62.7056
      vertex 48.343 7.17716 -62.7056
    endloop
  endfacet
  facet normal 0 0 -1
    outer loop
      vertex -50 40.8492 -62.7056
      vertex 50 40.8492 -62.7056
      vertex 43.743 3.81666 -62.7056
    endloop
  endfacet
  facet normal 0 0 -1
    outer loop
      vertex 49.4647 56.611 -62.7056
      vertex 45.0185 62.511 -62.7056
      vertex 48.343 60.0823 -62.7056
    endloop
  endfacet
  facet normal 0 0 -1
    outer loop
      vertex 50 40.8492 -62.7056
      vertex 45.0185 62.511 -62.7056
      vertex 49.4647 56.611 -62.7056
    endloop
  endfacet
  facet normal 0 0 -1
    outer loop
      vertex -50 40.8492 -62.7056
      vertex 43.743 3.81666 -62.7056
      vertex -43.743 3.81666 -62.7056
    endloop
  endfacet
  facet normal 0 0 -1
    outer loop
      vertex 50 40.8492 -62.7056
      vertex -50 40.8492 -62.7056
      vertex 45.0185 62.511 -62.7056
    endloop
  endfacet
  facet normal 0 0 -1
    outer loop
      vertex -50 12.3051 -62.7056
      vertex -43.743 3.81666 -62.7056
      vertex -48.343 7.17716 -62.7056
    endloop
  endfacet
  facet normal -0 0 -1
    outer loop
      vertex 45.0185 62.511 -62.7056
      vertex -50 40.8492 -62.7056
      vertex -45.0185 62.511 -62.7056
    endloop
  endfacet
  facet normal 0 -0 -1
    outer loop
      vertex -49.4647 56.611 -62.7056
      vertex -45.0185 62.511 -62.7056
      vertex -50 40.8492 -62.7056
    endloop
  endfacet
  facet normal 0 0 -1
    outer loop
      vertex -43.743 3.81666 -62.7056
      vertex -50 12.3051 -62.7056
      vertex -50 40.8492 -62.7056
    endloop
  endfacet
  facet normal 0 0 -1
    outer loop
      vertex -45.0185 62.511 -62.7056
      vertex -49.4647 56.611 -62.7056
      vertex -48.343 60.0823 -62.7056
    endloop
  endfacet
  facet normal 0.951063 -0.307303 0.0322983
    outer loop
      vertex 32.5804 35.4405 -27.0527
      vertex 32.7 32.4752 -58.7879
      vertex 32.7 35.8066 -27.0912
    endloop
  endfacet
  facet normal 0.951088 -0.307228 0.0322914
    outer loop
      vertex 32.7 32.4752 -58.7879
      vertex 32.5804 35.4405 -27.0527
      vertex 32.5804 32.109 -58.7494
    endloop
  endfacet
  facet normal -0.587736 0.80462 -0.0845698
    outer loop
      vertex -32.0655 37.3559 -27.254
      vertex -32.5804 33.6524 -58.9117
      vertex -32.5804 36.9839 -27.2149
    endloop
  endfacet
  facet normal -0.587736 0.80462 -0.0845698
    outer loop
      vertex -32.5804 33.6524 -58.9117
      vertex -32.0655 37.3559 -27.254
      vertex -32.0655 34.0244 -58.9508
    endloop
  endfacet
  facet normal 0.587736 0.80462 -0.0845698
    outer loop
      vertex 32.5804 33.6524 -58.9117
      vertex 32.0655 37.3559 -27.254
      vertex 32.5804 36.9839 -27.2149
    endloop
  endfacet
  facet normal 0.587736 0.80462 -0.0845698
    outer loop
      vertex 32.0655 37.3559 -27.254
      vertex 32.5804 33.6524 -58.9117
      vertex 32.0655 34.0244 -58.9508
    endloop
  endfacet
  facet normal -0.951088 0.307228 -0.0322913
    outer loop
      vertex -32.5804 33.6524 -58.9117
      vertex -32.7 36.6177 -27.1764
      vertex -32.5804 36.9839 -27.2149
    endloop
  endfacet
  facet normal -0.951088 0.307228 -0.0322913
    outer loop
      vertex -32.7 36.6177 -27.1764
      vertex -32.5804 33.6524 -58.9117
      vertex -32.7 33.2862 -58.8732
    endloop
  endfacet
  facet normal 0.587736 -0.80462 0.0845701
    outer loop
      vertex 32.0655 31.737 -58.7103
      vertex 32.5804 35.4405 -27.0527
      vertex 32.0655 35.0685 -27.0136
    endloop
  endfacet
  facet normal 0.587736 -0.80462 0.0845701
    outer loop
      vertex 32.5804 35.4405 -27.0527
      vertex 32.0655 31.737 -58.7103
      vertex 32.5804 32.109 -58.7494
    endloop
  endfacet
  facet normal 0.951088 0.307228 -0.0322913
    outer loop
      vertex 32.7 36.6177 -27.1764
      vertex 32.5804 33.6524 -58.9117
      vertex 32.5804 36.9839 -27.2149
    endloop
  endfacet
  facet normal 0.951088 0.307228 -0.0322913
    outer loop
      vertex 32.5804 33.6524 -58.9117
      vertex 32.7 36.6177 -27.1764
      vertex 32.7 33.2862 -58.8732
    endloop
  endfacet
  facet normal -0.951063 -0.307303 0.0322983
    outer loop
      vertex -32.7 32.4752 -58.7879
      vertex -32.5804 35.4405 -27.0527
      vertex -32.7 35.8066 -27.0912
    endloop
  endfacet
  facet normal -0.951088 -0.307228 0.0322914
    outer loop
      vertex -32.5804 35.4405 -27.0527
      vertex -32.7 32.4752 -58.7879
      vertex -32.5804 32.109 -58.7494
    endloop
  endfacet
  facet normal -0.587736 -0.80462 0.0845701
    outer loop
      vertex -32.5804 35.4405 -27.0527
      vertex -32.0655 31.737 -58.7103
      vertex -32.0655 35.0685 -27.0136
    endloop
  endfacet
  facet normal -0.587736 -0.80462 0.0845701
    outer loop
      vertex -32.0655 31.737 -58.7103
      vertex -32.5804 35.4405 -27.0527
      vertex -32.5804 32.109 -58.7494
    endloop
  endfacet
  facet normal -0.951054 -0.0322999 -0.307333
    outer loop
      vertex -5 36.6033 -34.4146
      vertex -5.4775 34.4695 -32.7127
      vertex -5.4775 36.7569 -32.9531
    endloop
  endfacet
  facet normal -0.951048 -0.0323152 -0.30735
    outer loop
      vertex -5.4775 34.4695 -32.7127
      vertex -5 36.6033 -34.4146
      vertex -5 34.3159 -34.1741
    endloop
  endfacet
  facet normal 0 -0.104522 -0.994523
    outer loop
      vertex -8.2725 34.5644 -31.8095
      vertex -6.7275 36.8518 -32.0499
      vertex -6.7275 34.5644 -31.8095
    endloop
  endfacet
  facet normal -0 -0.104522 -0.994523
    outer loop
      vertex -6.7275 36.8518 -32.0499
      vertex -8.2725 34.5644 -31.8095
      vertex -8.2725 36.8518 -32.0499
    endloop
  endfacet
  facet normal -0.587783 -0.0845601 -0.804588
    outer loop
      vertex -6.7275 34.5644 -31.8095
      vertex -5.4775 36.7569 -32.9531
      vertex -5.4775 34.4695 -32.7127
    endloop
  endfacet
  facet normal -0.587783 -0.0845601 -0.804588
    outer loop
      vertex -5.4775 36.7569 -32.9531
      vertex -6.7275 34.5644 -31.8095
      vertex -6.7275 36.8518 -32.0499
    endloop
  endfacet
  facet normal -0.587787 0.0845598 0.804584
    outer loop
      vertex -6.7275 36.3547 -36.7792
      vertex -5.4775 34.1623 -35.6356
      vertex -5.4775 36.4497 -35.876
    endloop
  endfacet
  facet normal -0.587787 0.0845598 0.804584
    outer loop
      vertex -5.4775 34.1623 -35.6356
      vertex -6.7275 36.3547 -36.7792
      vertex -6.7275 34.0673 -36.5388
    endloop
  endfacet
  facet normal 0.587787 0.0845598 0.804584
    outer loop
      vertex -9.5225 34.1623 -35.6356
      vertex -8.2725 36.3547 -36.7792
      vertex -9.5225 36.4497 -35.876
    endloop
  endfacet
  facet normal 0.587787 0.0845598 0.804584
    outer loop
      vertex -8.2725 36.3547 -36.7792
      vertex -9.5225 34.1623 -35.6356
      vertex -8.2725 34.0673 -36.5388
    endloop
  endfacet
  facet normal 0.951054 -0.0322999 -0.307333
    outer loop
      vertex -9.5225 34.4695 -32.7127
      vertex -10 36.6033 -34.4146
      vertex -9.5225 36.7569 -32.9531
    endloop
  endfacet
  facet normal 0.951048 -0.0323152 -0.30735
    outer loop
      vertex -10 36.6033 -34.4146
      vertex -9.5225 34.4695 -32.7127
      vertex -10 34.3159 -34.1741
    endloop
  endfacet
  facet normal 0.951048 0.0323152 0.30735
    outer loop
      vertex -10 34.3159 -34.1741
      vertex -9.5225 36.4497 -35.876
      vertex -10 36.6033 -34.4146
    endloop
  endfacet
  facet normal 0.951054 0.0322999 0.307333
    outer loop
      vertex -9.5225 36.4497 -35.876
      vertex -10 34.3159 -34.1741
      vertex -9.5225 34.1623 -35.6356
    endloop
  endfacet
  facet normal 0.587783 -0.0845601 -0.804588
    outer loop
      vertex -9.5225 36.7569 -32.9531
      vertex -8.2725 34.5644 -31.8095
      vertex -9.5225 34.4695 -32.7127
    endloop
  endfacet
  facet normal 0.587783 -0.0845601 -0.804588
    outer loop
      vertex -8.2725 34.5644 -31.8095
      vertex -9.5225 36.7569 -32.9531
      vertex -8.2725 36.8518 -32.0499
    endloop
  endfacet
  facet normal -0.951048 0.0323152 0.30735
    outer loop
      vertex -5.4775 36.4497 -35.876
      vertex -5 34.3159 -34.1741
      vertex -5 36.6033 -34.4146
    endloop
  endfacet
  facet normal -0.951054 0.0322999 0.307333
    outer loop
      vertex -5 34.3159 -34.1741
      vertex -5.4775 36.4497 -35.876
      vertex -5.4775 34.1623 -35.6356
    endloop
  endfacet
  facet normal -0 0.104522 0.994523
    outer loop
      vertex -8.2725 36.3547 -36.7792
      vertex -6.7275 34.0673 -36.5388
      vertex -6.7275 36.3547 -36.7792
    endloop
  endfacet
  facet normal 0 0.104522 0.994523
    outer loop
      vertex -6.7275 34.0673 -36.5388
      vertex -8.2725 36.3547 -36.7792
      vertex -8.2725 34.0673 -36.5388
    endloop
  endfacet
  facet normal -0.951054 -0.0322999 -0.307333
    outer loop
      vertex 12.5 36.6033 -34.4146
      vertex 12.0225 34.4695 -32.7127
      vertex 12.0225 36.7569 -32.9531
    endloop
  endfacet
  facet normal -0.951048 -0.0323152 -0.30735
    outer loop
      vertex 12.0225 34.4695 -32.7127
      vertex 12.5 36.6033 -34.4146
      vertex 12.5 34.3159 -34.1741
    endloop
  endfacet
  facet normal 0 -0.104522 -0.994523
    outer loop
      vertex 9.2275 34.5644 -31.8095
      vertex 10.7725 36.8518 -32.0499
      vertex 10.7725 34.5644 -31.8095
    endloop
  endfacet
  facet normal -0 -0.104522 -0.994523
    outer loop
      vertex 10.7725 36.8518 -32.0499
      vertex 9.2275 34.5644 -31.8095
      vertex 9.2275 36.8518 -32.0499
    endloop
  endfacet
  facet normal -0.587783 -0.0845601 -0.804588
    outer loop
      vertex 10.7725 34.5644 -31.8095
      vertex 12.0225 36.7569 -32.9531
      vertex 12.0225 34.4695 -32.7127
    endloop
  endfacet
  facet normal -0.587783 -0.0845601 -0.804588
    outer loop
      vertex 12.0225 36.7569 -32.9531
      vertex 10.7725 34.5644 -31.8095
      vertex 10.7725 36.8518 -32.0499
    endloop
  endfacet
  facet normal 0.587783 -0.0845601 -0.804588
    outer loop
      vertex 7.9775 36.7569 -32.9531
      vertex 9.2275 34.5644 -31.8095
      vertex 7.9775 34.4695 -32.7127
    endloop
  endfacet
  facet normal 0.587783 -0.0845601 -0.804588
    outer loop
      vertex 9.2275 34.5644 -31.8095
      vertex 7.9775 36.7569 -32.9531
      vertex 9.2275 36.8518 -32.0499
    endloop
  endfacet
  facet normal -0.587787 0.0845598 0.804584
    outer loop
      vertex 10.7725 36.3547 -36.7792
      vertex 12.0225 34.1623 -35.6356
      vertex 12.0225 36.4497 -35.876
    endloop
  endfacet
  facet normal -0.587787 0.0845598 0.804584
    outer loop
      vertex 12.0225 34.1623 -35.6356
      vertex 10.7725 36.3547 -36.7792
      vertex 10.7725 34.0673 -36.5388
    endloop
  endfacet
  facet normal 0.587787 0.0845598 0.804584
    outer loop
      vertex 7.9775 34.1623 -35.6356
      vertex 9.2275 36.3547 -36.7792
      vertex 7.9775 36.4497 -35.876
    endloop
  endfacet
  facet normal 0.587787 0.0845598 0.804584
    outer loop
      vertex 9.2275 36.3547 -36.7792
      vertex 7.9775 34.1623 -35.6356
      vertex 9.2275 34.0673 -36.5388
    endloop
  endfacet
  facet normal 0.951054 -0.0322999 -0.307333
    outer loop
      vertex 7.9775 34.4695 -32.7127
      vertex 7.5 36.6033 -34.4146
      vertex 7.9775 36.7569 -32.9531
    endloop
  endfacet
  facet normal 0.951048 -0.0323152 -0.30735
    outer loop
      vertex 7.5 36.6033 -34.4146
      vertex 7.9775 34.4695 -32.7127
      vertex 7.5 34.3159 -34.1741
    endloop
  endfacet
  facet normal -0.951048 0.0323152 0.30735
    outer loop
      vertex 12.0225 36.4497 -35.876
      vertex 12.5 34.3159 -34.1741
      vertex 12.5 36.6033 -34.4146
    endloop
  endfacet
  facet normal -0.951054 0.0322999 0.307333
    outer loop
      vertex 12.5 34.3159 -34.1741
      vertex 12.0225 36.4497 -35.876
      vertex 12.0225 34.1623 -35.6356
    endloop
  endfacet
  facet normal -0 0.104522 0.994523
    outer loop
      vertex 9.2275 36.3547 -36.7792
      vertex 10.7725 34.0673 -36.5388
      vertex 10.7725 36.3547 -36.7792
    endloop
  endfacet
  facet normal 0 0.104522 0.994523
    outer loop
      vertex 10.7725 34.0673 -36.5388
      vertex 9.2275 36.3547 -36.7792
      vertex 9.2275 34.0673 -36.5388
    endloop
  endfacet
  facet normal 0.951048 0.0323152 0.30735
    outer loop
      vertex 7.5 34.3159 -34.1741
      vertex 7.9775 36.4497 -35.876
      vertex 7.5 36.6033 -34.4146
    endloop
  endfacet
  facet normal 0.951054 0.0322999 0.307333
    outer loop
      vertex 7.9775 36.4497 -35.876
      vertex 7.5 34.3159 -34.1741
      vertex 7.9775 34.1623 -35.6356
    endloop
  endfacet
  facet normal -1 0 0
    outer loop
      vertex -32.7 33.2862 -58.8732
      vertex -32.7 35.8066 -27.0912
      vertex -32.7 36.6177 -27.1764
    endloop
  endfacet
  facet normal -1 0 0
    outer loop
      vertex -32.7 35.8066 -27.0912
      vertex -32.7 33.2862 -58.8732
      vertex -32.7 32.4752 -58.7879
    endloop
  endfacet
  facet normal 0 -0.994525 0.104496
    outer loop
      vertex -5.4775 34.4695 -32.7127
      vertex 9.2275 34.5644 -31.8095
      vertex -6.7275 34.5644 -31.8095
    endloop
  endfacet
  facet normal 0 -0.994525 0.104496
    outer loop
      vertex -5.4775 34.4695 -32.7127
      vertex 7.9775 34.4695 -32.7127
      vertex 9.2275 34.5644 -31.8095
    endloop
  endfacet
  facet normal 0 -0.994522 0.104529
    outer loop
      vertex -5 34.3159 -34.1741
      vertex 7.9775 34.4695 -32.7127
      vertex -5.4775 34.4695 -32.7127
    endloop
  endfacet
  facet normal 0 -0.994522 0.104529
    outer loop
      vertex -5 34.3159 -34.1741
      vertex 7.5 34.3159 -34.1741
      vertex 7.9775 34.4695 -32.7127
    endloop
  endfacet
  facet normal 0 -0.994523 0.104522
    outer loop
      vertex -5.4775 34.1623 -35.6356
      vertex 7.5 34.3159 -34.1741
      vertex -5 34.3159 -34.1741
    endloop
  endfacet
  facet normal 0 -0.994523 0.104522
    outer loop
      vertex -5.4775 34.1623 -35.6356
      vertex 7.9775 34.1623 -35.6356
      vertex 7.5 34.3159 -34.1741
    endloop
  endfacet
  facet normal 0 -0.994514 0.104605
    outer loop
      vertex -6.7275 34.0673 -36.5388
      vertex 7.9775 34.1623 -35.6356
      vertex -5.4775 34.1623 -35.6356
    endloop
  endfacet
  facet normal 0 -0.994514 0.104605
    outer loop
      vertex 7.9775 34.1623 -35.6356
      vertex -6.7275 34.0673 -36.5388
      vertex 9.2275 34.0673 -36.5388
    endloop
  endfacet
  facet normal 0 -0.994521 0.104535
    outer loop
      vertex -6.7275 34.5644 -31.8095
      vertex -32.0655 35.0685 -27.0136
      vertex -8.2725 34.5644 -31.8095
    endloop
  endfacet
  facet normal -6.23136e-006 -0.994524 0.104504
    outer loop
      vertex -32.0655 35.0685 -27.0136
      vertex -9.5225 34.4695 -32.7127
      vertex -8.2725 34.5644 -31.8095
    endloop
  endfacet
  facet normal 8.81153e-008 -0.994522 0.104529
    outer loop
      vertex -32.0655 35.0685 -27.0136
      vertex -10 34.3159 -34.1741
      vertex -9.5225 34.4695 -32.7127
    endloop
  endfacet
  facet normal -2.4872e-006 -0.994523 0.104521
    outer loop
      vertex -32.0655 35.0685 -27.0136
      vertex -9.5225 34.1623 -35.6356
      vertex -10 34.3159 -34.1741
    endloop
  endfacet
  facet normal 8.95592e-007 -0.994522 0.10453
    outer loop
      vertex -32.0655 31.737 -58.7103
      vertex -9.5225 34.1623 -35.6356
      vertex -32.0655 35.0685 -27.0136
    endloop
  endfacet
  facet normal 0 -0.994522 0.104528
    outer loop
      vertex -17.8 31.737 -58.7103
      vertex -6.7275 34.0673 -36.5388
      vertex -8.2725 34.0673 -36.5388
    endloop
  endfacet
  facet normal 0 -0.994522 0.104528
    outer loop
      vertex -6.7275 34.0673 -36.5388
      vertex -17.8 31.737 -58.7103
      vertex 9.2275 34.0673 -36.5388
    endloop
  endfacet
  facet normal -4.28683e-005 -0.99452 0.104546
    outer loop
      vertex -9.5225 34.1623 -35.6356
      vertex -17.8 31.737 -58.7103
      vertex -8.2725 34.0673 -36.5388
    endloop
  endfacet
  facet normal 0 -0.994522 0.104531
    outer loop
      vertex -9.5225 34.1623 -35.6356
      vertex -32.0655 31.737 -58.7103
      vertex -17.8 31.737 -58.7103
    endloop
  endfacet
  facet normal 0 -0.994521 0.104535
    outer loop
      vertex -32.0655 35.0685 -27.0136
      vertex -6.7275 34.5644 -31.8095
      vertex 32.0655 35.0685 -27.0136
    endloop
  endfacet
  facet normal 0 -0.994521 0.104535
    outer loop
      vertex 9.2275 34.5644 -31.8095
      vertex 32.0655 35.0685 -27.0136
      vertex -6.7275 34.5644 -31.8095
    endloop
  endfacet
  facet normal 0 -0.994521 0.104535
    outer loop
      vertex 10.7725 34.5644 -31.8095
      vertex 32.0655 35.0685 -27.0136
      vertex 9.2275 34.5644 -31.8095
    endloop
  endfacet
  facet normal 6.78911e-006 -0.994524 0.104505
    outer loop
      vertex 12.0225 34.4695 -32.7127
      vertex 32.0655 35.0685 -27.0136
      vertex 10.7725 34.5644 -31.8095
    endloop
  endfacet
  facet normal -9.81717e-008 -0.994522 0.104529
    outer loop
      vertex 12.5 34.3159 -34.1741
      vertex 32.0655 35.0685 -27.0136
      vertex 12.0225 34.4695 -32.7127
    endloop
  endfacet
  facet normal 2.84817e-006 -0.994523 0.104521
    outer loop
      vertex 12.0225 34.1623 -35.6356
      vertex 32.0655 35.0685 -27.0136
      vertex 12.5 34.3159 -34.1741
    endloop
  endfacet
  facet normal 3.31647e-005 -0.994519 0.104559
    outer loop
      vertex 32.0655 31.737 -58.7103
      vertex 12.0225 34.1623 -35.6356
      vertex 10.7725 34.0673 -36.5388
    endloop
  endfacet
  facet normal 0 -0.994522 0.104528
    outer loop
      vertex 32.0655 31.737 -58.7103
      vertex 9.2275 34.0673 -36.5388
      vertex -17.8 31.737 -58.7103
    endloop
  endfacet
  facet normal 0 -0.994522 0.104528
    outer loop
      vertex 9.2275 34.0673 -36.5388
      vertex 32.0655 31.737 -58.7103
      vertex 10.7725 34.0673 -36.5388
    endloop
  endfacet
  facet normal -1.0073e-006 -0.994522 0.10453
    outer loop
      vertex 12.0225 34.1623 -35.6356
      vertex 32.0655 31.737 -58.7103
      vertex 32.0655 35.0685 -27.0136
    endloop
  endfacet
  facet normal 1 0 0
    outer loop
      vertex 32.7 35.8066 -27.0912
      vertex 32.7 33.2862 -58.8732
      vertex 32.7 36.6177 -27.1764
    endloop
  endfacet
  facet normal 1 0 -0
    outer loop
      vertex 32.7 33.2862 -58.8732
      vertex 32.7 35.8066 -27.0912
      vertex 32.7 32.4752 -58.7879
    endloop
  endfacet
  facet normal 0 0.994525 -0.104496
    outer loop
      vertex 7.9775 36.7569 -32.9531
      vertex -6.7275 36.8518 -32.0499
      vertex 9.2275 36.8518 -32.0499
    endloop
  endfacet
  facet normal 0 0.994525 -0.104496
    outer loop
      vertex 7.9775 36.7569 -32.9531
      vertex -5.4775 36.7569 -32.9531
      vertex -6.7275 36.8518 -32.0499
    endloop
  endfacet
  facet normal 0 0.994523 -0.104522
    outer loop
      vertex 7.5 36.6033 -34.4146
      vertex -5.4775 36.7569 -32.9531
      vertex 7.9775 36.7569 -32.9531
    endloop
  endfacet
  facet normal 0 0.994523 -0.104522
    outer loop
      vertex 7.5 36.6033 -34.4146
      vertex -5 36.6033 -34.4146
      vertex -5.4775 36.7569 -32.9531
    endloop
  endfacet
  facet normal 0 0.994522 -0.104529
    outer loop
      vertex 7.9775 36.4497 -35.876
      vertex -5 36.6033 -34.4146
      vertex 7.5 36.6033 -34.4146
    endloop
  endfacet
  facet normal 0 0.994522 -0.104529
    outer loop
      vertex 7.9775 36.4497 -35.876
      vertex -5.4775 36.4497 -35.876
      vertex -5 36.6033 -34.4146
    endloop
  endfacet
  facet normal 0 0.994514 -0.104605
    outer loop
      vertex 9.2275 36.3547 -36.7792
      vertex -5.4775 36.4497 -35.876
      vertex 7.9775 36.4497 -35.876
    endloop
  endfacet
  facet normal 0 0.994514 -0.104605
    outer loop
      vertex -5.4775 36.4497 -35.876
      vertex 9.2275 36.3547 -36.7792
      vertex -6.7275 36.3547 -36.7792
    endloop
  endfacet
  facet normal 0 0.994521 -0.104535
    outer loop
      vertex 9.2275 36.8518 -32.0499
      vertex 32.0655 37.3559 -27.254
      vertex 10.7725 36.8518 -32.0499
    endloop
  endfacet
  facet normal -6.78911e-006 0.994524 -0.104505
    outer loop
      vertex 32.0655 37.3559 -27.254
      vertex 12.0225 36.7569 -32.9531
      vertex 10.7725 36.8518 -32.0499
    endloop
  endfacet
  facet normal -1.76263e-006 0.994523 -0.104522
    outer loop
      vertex 32.0655 37.3559 -27.254
      vertex 12.5 36.6033 -34.4146
      vertex 12.0225 36.7569 -32.9531
    endloop
  endfacet
  facet normal 7.31654e-007 0.994522 -0.104529
    outer loop
      vertex 32.0655 37.3559 -27.254
      vertex 12.0225 36.4497 -35.876
      vertex 12.5 36.6033 -34.4146
    endloop
  endfacet
  facet normal 8.65437e-007 0.994522 -0.104529
    outer loop
      vertex 32.0655 34.0244 -58.9508
      vertex 12.0225 36.4497 -35.876
      vertex 32.0655 37.3559 -27.254
    endloop
  endfacet
  facet normal 0 0.994522 -0.104527
    outer loop
      vertex 32.0655 34.0244 -58.9508
      vertex 9.2275 36.3547 -36.7792
      vertex 10.7725 36.3547 -36.7792
    endloop
  endfacet
  facet normal 0 0.994522 -0.104527
    outer loop
      vertex 9.2275 36.3547 -36.7792
      vertex -20.1 34.0244 -58.9508
      vertex -6.7275 36.3547 -36.7792
    endloop
  endfacet
  facet normal 0 0.994522 -0.104527
    outer loop
      vertex 9.2275 36.3547 -36.7792
      vertex 32.0655 34.0244 -58.9508
      vertex -20.1 34.0244 -58.9508
    endloop
  endfacet
  facet normal -3.33659e-005 0.994519 -0.104559
    outer loop
      vertex 12.0225 36.4497 -35.876
      vertex 32.0655 34.0244 -58.9508
      vertex 10.7725 36.3547 -36.7792
    endloop
  endfacet
  facet normal 0 0.994521 -0.104535
    outer loop
      vertex -6.7275 36.8518 -32.0499
      vertex 32.0655 37.3559 -27.254
      vertex 9.2275 36.8518 -32.0499
    endloop
  endfacet
  facet normal 0 0.994521 -0.104535
    outer loop
      vertex 32.0655 37.3559 -27.254
      vertex -6.7275 36.8518 -32.0499
      vertex -32.0655 37.3559 -27.254
    endloop
  endfacet
  facet normal 0 0.994521 -0.104535
    outer loop
      vertex -8.2725 36.8518 -32.0499
      vertex -32.0655 37.3559 -27.254
      vertex -6.7275 36.8518 -32.0499
    endloop
  endfacet
  facet normal 6.23136e-006 0.994524 -0.104504
    outer loop
      vertex -9.5225 36.7569 -32.9531
      vertex -32.0655 37.3559 -27.254
      vertex -8.2725 36.8518 -32.0499
    endloop
  endfacet
  facet normal 1.58207e-006 0.994523 -0.104522
    outer loop
      vertex -10 36.6033 -34.4146
      vertex -32.0655 37.3559 -27.254
      vertex -9.5225 36.7569 -32.9531
    endloop
  endfacet
  facet normal -6.38926e-007 0.994522 -0.104529
    outer loop
      vertex -9.5225 36.4497 -35.876
      vertex -32.0655 37.3559 -27.254
      vertex -10 36.6033 -34.4146
    endloop
  endfacet
  facet normal 4.0795e-005 0.99452 -0.104549
    outer loop
      vertex -20.1 34.0244 -58.9508
      vertex -9.5225 36.4497 -35.876
      vertex -8.2725 36.3547 -36.7792
    endloop
  endfacet
  facet normal 0 0.994522 -0.104527
    outer loop
      vertex -6.7275 36.3547 -36.7792
      vertex -20.1 34.0244 -58.9508
      vertex -8.2725 36.3547 -36.7792
    endloop
  endfacet
  facet normal -8.99304e-007 0.994522 -0.10453
    outer loop
      vertex -9.5225 36.4497 -35.876
      vertex -20.1 34.0244 -58.9508
      vertex -32.0655 37.3559 -27.254
    endloop
  endfacet
  facet normal 0 0.994522 -0.104529
    outer loop
      vertex -32.0655 37.3559 -27.254
      vertex -20.1 34.0244 -58.9508
      vertex -32.0655 34.0244 -58.9508
    endloop
  endfacet
  facet normal 2.47136e-005 0.104566 0.994518
    outer loop
      vertex 32.0655 37.3559 -27.254
      vertex 32.7 36.6177 -27.1764
      vertex 32.5804 36.9839 -27.2149
    endloop
  endfacet
  facet normal -9.02847e-005 0.104468 0.994528
    outer loop
      vertex 32.7 36.6177 -27.1764
      vertex 32.0655 37.3559 -27.254
      vertex 32.7 35.8066 -27.0912
    endloop
  endfacet
  facet normal 4.31699e-005 0.104522 0.994523
    outer loop
      vertex 32.0655 35.0685 -27.0136
      vertex 32.7 35.8066 -27.0912
      vertex 32.0655 37.3559 -27.254
    endloop
  endfacet
  facet normal -5.17236e-005 0.104603 0.994514
    outer loop
      vertex 32.7 35.8066 -27.0912
      vertex 32.0655 35.0685 -27.0136
      vertex 32.5804 35.4405 -27.0527
    endloop
  endfacet
  facet normal 0 0.104522 0.994523
    outer loop
      vertex 32.0655 37.3559 -27.254
      vertex -32.0655 35.0685 -27.0136
      vertex 32.0655 35.0685 -27.0136
    endloop
  endfacet
  facet normal -0 0.104522 0.994523
    outer loop
      vertex -32.0655 37.3559 -27.254
      vertex -32.0655 35.0685 -27.0136
      vertex 32.0655 37.3559 -27.254
    endloop
  endfacet
  facet normal -2.47136e-005 0.104566 0.994518
    outer loop
      vertex -32.7 36.6177 -27.1764
      vertex -32.0655 37.3559 -27.254
      vertex -32.5804 36.9839 -27.2149
    endloop
  endfacet
  facet normal 2.66968e-005 0.104522 0.994523
    outer loop
      vertex -32.0655 37.3559 -27.254
      vertex -32.7 36.6177 -27.1764
      vertex -32.0655 35.0685 -27.0136
    endloop
  endfacet
  facet normal -0.000106749 0.104468 0.994528
    outer loop
      vertex -32.7 35.8066 -27.0912
      vertex -32.0655 35.0685 -27.0136
      vertex -32.7 36.6177 -27.1764
    endloop
  endfacet
  facet normal 5.17236e-005 0.104603 0.994514
    outer loop
      vertex -32.0655 35.0685 -27.0136
      vertex -32.7 35.8066 -27.0912
      vertex -32.5804 35.4405 -27.0527
    endloop
  endfacet
endsolid OpenSCAD_Model
